<?xml version="1.0" standalone="no"?>
<!DOCTYPE svg PUBLIC "-//W3C//DTD SVG 20010904//EN"
 "http://www.w3.org/TR/2001/REC-SVG-20010904/DTD/svg10.dtd">
<svg version="1.0" xmlns="http://www.w3.org/2000/svg"
 width="1280.000000pt" height="1280.000000pt" viewBox="0 0 1280.000000 1280.000000"
 preserveAspectRatio="xMidYMid meet">
<g transform="translate(0.000000,1280.000000) scale(0.100000,-0.100000)"
fill="#b1b1b1" stroke="none">
<path d="M6070 11754 c-310 -25 -481 -47 -725 -95 -705 -138 -1408 -438 -2010
-859 -1077 -751 -1836 -1861 -2149 -3140 -51 -211 -97 -481 -128 -765 -18
-163 -18 -827 0 -990 80 -724 244 -1299 543 -1895 272 -543 594 -989 1018
-1410 420 -417 859 -732 1391 -998 534 -268 1085 -437 1675 -516 264 -36 357
-41 715 -41 358 0 451 5 715 41 1029 138 1992 571 2790 1256 153 131 421 399
554 553 675 786 1114 1753 1250 2755 43 315 46 361 46 750 0 398 -4 461 -50
780 -127 884 -477 1720 -1025 2449 -698 928 -1688 1608 -2810 1930 -244 70
-547 132 -785 160 -49 6 -130 16 -180 22 -86 10 -741 21 -835 13z m218 -951
c-15 -2 -42 -2 -60 0 -18 2 -6 4 27 4 33 0 48 -2 33 -4z m290 0 c-15 -2 -42
-2 -60 0 -18 2 -6 4 27 4 33 0 48 -2 33 -4z m-455 -10 c-7 -2 -21 -2 -30 0
-10 3 -4 5 12 5 17 0 24 -2 18 -5z m590 0 c-7 -2 -21 -2 -30 0 -10 3 -4 5 12
5 17 0 24 -2 18 -5z m-756 -9 c-3 -3 -12 -4 -19 -1 -8 3 -5 6 6 6 11 1 17 -2
13 -5z m910 0 c-3 -3 -12 -4 -19 -1 -8 3 -5 6 6 6 11 1 17 -2 13 -5z m-970
-10 c-3 -3 -12 -4 -19 -1 -8 3 -5 6 6 6 11 1 17 -2 13 -5z m1030 0 c-3 -3 -12
-4 -19 -1 -8 3 -5 6 6 6 11 1 17 -2 13 -5z m-1130 -10 c-3 -3 -12 -4 -19 -1
-8 3 -5 6 6 6 11 1 17 -2 13 -5z m1230 0 c-3 -3 -12 -4 -19 -1 -8 3 -5 6 6 6
11 1 17 -2 13 -5z m-2707 -479 c0 -2 -10 -9 -22 -15 -22 -11 -22 -10 -4 4 21
17 26 19 26 11z m4200 -21 c0 -2 -9 0 -20 6 -11 6 -20 13 -20 16 0 2 9 0 20
-6 11 -6 20 -13 20 -16z m-4290 -29 c0 -2 -10 -9 -22 -15 -22 -11 -22 -10 -4
4 21 17 26 19 26 11z m4380 -21 c0 -2 -9 0 -20 6 -11 6 -20 13 -20 16 0 2 9 0
20 -6 11 -6 20 -13 20 -16z m-2192 -446 c7 -194 17 -492 22 -663 5 -170 14
-461 20 -645 6 -184 15 -463 20 -620 5 -157 12 -381 16 -498 4 -117 10 -210
15 -205 13 13 66 230 89 358 30 178 57 393 85 705 62 685 67 729 107 985 70
452 183 713 357 824 71 46 174 66 266 50 196 -32 612 -205 905 -377 236 -137
339 -225 388 -330 24 -51 27 -68 26 -162 0 -94 -4 -114 -33 -186 -55 -141
-155 -292 -317 -480 -89 -102 -406 -420 -841 -842 -300 -290 -453 -454 -569
-607 -71 -93 -94 -132 -71 -118 19 10 535 395 1327 988 345 259 712 533 816
609 104 77 204 151 222 164 17 13 32 20 31 16 -1 -11 -90 -89 -934 -805 -1077
-914 -1344 -1143 -1340 -1147 8 -8 209 84 340 155 185 100 343 199 800 500
437 287 584 378 780 478 257 132 407 178 575 178 141 0 202 -23 285 -107 73
-73 105 -137 175 -341 149 -440 229 -977 171 -1148 -44 -127 -136 -211 -286
-261 -123 -42 -201 -51 -465 -51 -293 1 -416 12 -1020 95 -583 80 -700 92
-995 96 l-260 4 -7 88 c-19 242 -173 469 -394 580 -106 53 -171 67 -324 67
-153 0 -218 -14 -324 -67 -221 -111 -375 -338 -394 -580 l-7 -88 -260 -4
c-295 -4 -412 -16 -995 -96 -604 -83 -727 -94 -1020 -95 -264 0 -342 9 -465
51 -151 50 -252 144 -290 270 -53 173 31 715 175 1139 71 209 102 269 174 341
85 84 145 107 286 107 168 0 318 -46 575 -178 189 -97 362 -203 795 -488 441
-290 601 -390 785 -490 131 -72 332 -163 340 -155 4 4 -443 386 -1565 1338
-639 543 -708 602 -709 613 -1 12 200 -137 1184 -874 621 -465 1194 -892 1213
-903 21 -13 2 18 -67 112 -110 149 -270 319 -574 614 -817 791 -1002 997
-1122 1243 -59 120 -78 200 -73 295 8 140 74 237 236 348 321 218 831 448
1092 492 53 9 80 8 139 -4 134 -28 236 -119 316 -281 120 -245 181 -570 245
-1305 45 -515 67 -710 105 -941 25 -150 80 -378 94 -392 5 -5 11 90 15 210 4
120 11 342 16 493 5 151 14 430 20 620 41 1329 52 1660 60 1660 3 0 12 -159
18 -352z m-2508 268 c0 -3 -15 -14 -32 -26 l-33 -22 30 26 c31 27 35 29 35 22z
m5040 -42 c0 -3 -13 4 -30 16 -16 12 -30 24 -30 26 0 3 14 -4 30 -16 17 -12
30 -24 30 -26z m-5140 -28 c0 -2 -8 -10 -17 -17 -16 -13 -17 -12 -4 4 13 16
21 21 21 13z m5201 -13 c13 -16 12 -17 -3 -4 -10 7 -18 15 -18 17 0 8 8 3 21
-13z m-5241 -17 c0 -2 -8 -10 -17 -17 -16 -13 -17 -12 -4 4 13 16 21 21 21 13z
m5281 -13 c13 -16 12 -17 -3 -4 -10 7 -18 15 -18 17 0 8 8 3 21 -13z m-5321
-17 c0 -2 -8 -10 -17 -17 -16 -13 -17 -12 -4 4 13 16 21 21 21 13z m-50 -40
c0 -2 -8 -10 -17 -17 -16 -13 -17 -12 -4 4 13 16 21 21 21 13z m5520 -63 c0
-2 -18 10 -40 27 -22 17 -40 34 -40 37 0 2 18 -10 40 -27 22 -17 40 -34 40
-37z m-5560 34 c0 -2 -12 -14 -27 -28 l-28 -24 24 28 c23 25 31 32 31 24z
m-60 -50 c0 -2 -12 -14 -27 -28 l-28 -24 24 28 c23 25 31 32 31 24z m5670 -22
c13 -14 21 -25 18 -25 -2 0 -15 11 -28 25 -13 14 -21 25 -18 25 2 0 15 -11 28
-25z m-5740 -38 c0 -2 -15 -16 -32 -33 l-33 -29 29 33 c28 30 36 37 36 29z
m5816 -29 l29 -33 -32 29 c-31 28 -38 36 -30 36 2 0 16 -15 33 -32z m-5896
-41 c0 -1 -66 -67 -147 -147 l-148 -145 145 148 c134 137 150 152 150 144z
m6090 -142 c80 -80 142 -145 140 -145 -3 0 -70 65 -150 145 -80 80 -142 145
-140 145 3 0 70 -65 150 -145z m-6390 -168 c0 -2 -15 -16 -32 -33 l-33 -29 29
33 c28 30 36 37 36 29z m6576 -29 l29 -33 -32 29 c-31 28 -38 36 -30 36 2 0
16 -15 33 -32z m-6646 -51 c0 -2 -12 -14 -27 -28 l-28 -24 24 28 c23 25 31 32
31 24z m6710 -22 c13 -14 21 -25 18 -25 -2 0 -15 11 -28 25 -13 14 -21 25 -18
25 2 0 15 -11 28 -25z m-6770 -49 c0 -2 -8 -10 -17 -17 -16 -13 -17 -12 -4 4
13 16 21 21 21 13z m6821 -13 c13 -16 12 -17 -3 -4 -10 7 -18 15 -18 17 0 8 8
3 21 -13z m-6861 -37 c0 -2 -8 -10 -17 -17 -16 -13 -17 -12 -4 4 13 16 21 21
21 13z m6901 -13 c13 -16 12 -17 -3 -4 -10 7 -18 15 -18 17 0 8 8 3 21 -13z
m-6941 -37 c0 -2 -8 -10 -17 -17 -16 -13 -17 -12 -4 4 13 16 21 21 21 13z
m6981 -13 c13 -16 12 -17 -3 -4 -10 7 -18 15 -18 17 0 8 8 3 21 -13z m-7011
-27 c0 -2 -8 -10 -17 -17 -16 -13 -17 -12 -4 4 13 16 21 21 21 13z m7041 -13
c13 -16 12 -17 -3 -4 -10 7 -18 15 -18 17 0 8 8 3 21 -13z m-7071 -27 c0 -2
-8 -10 -17 -17 -16 -13 -17 -12 -4 4 13 16 21 21 21 13z m-50 -70 c0 -2 -8
-10 -17 -17 -16 -13 -17 -12 -4 4 13 16 21 21 21 13z m7201 -13 c13 -16 12
-17 -3 -4 -10 7 -18 15 -18 17 0 8 8 3 21 -13z m-7481 -433 c-6 -11 -13 -20
-16 -20 -2 0 0 9 6 20 6 11 13 20 16 20 2 0 0 -9 -6 -20z m-129 -253 c-10 -9
-11 -8 -5 6 3 10 9 15 12 12 3 -3 0 -11 -7 -18z m8003 7 c3 -8 2 -12 -4 -9 -6
3 -10 10 -10 16 0 14 7 11 14 -7z m-8357 -1196 c-3 -8 -6 -5 -6 6 -1 11 2 17
5 13 3 -3 4 -12 1 -19z m8710 0 c-3 -8 -6 -5 -6 6 -1 11 2 17 5 13 3 -3 4 -12
1 -19z m10 -50 c-3 -8 -6 -5 -6 6 -1 11 2 17 5 13 3 -3 4 -12 1 -19z m-8740
-100 c-3 -8 -6 -5 -6 6 -1 11 2 17 5 13 3 -3 4 -12 1 -19z m8750 0 c-3 -8 -6
-5 -6 6 -1 11 2 17 5 13 3 -3 4 -12 1 -19z m-8760 -60 c-3 -8 -6 -5 -6 6 -1
11 2 17 5 13 3 -3 4 -12 1 -19z m8770 0 c-3 -8 -6 -5 -6 6 -1 11 2 17 5 13 3
-3 4 -12 1 -19z m-8780 -165 c-3 -10 -5 -4 -5 12 0 17 2 24 5 18 2 -7 2 -21 0
-30z m8790 0 c-3 -10 -5 -4 -5 12 0 17 2 24 5 18 2 -7 2 -21 0 -30z m-8800
-150 c-2 -16 -4 -5 -4 22 0 28 2 40 4 28 2 -13 2 -35 0 -50z m8810 0 c-2 -16
-4 -5 -4 22 0 28 2 40 4 28 2 -13 2 -35 0 -50z m-5123 -230 c4 -32 12 -75 18
-96 6 -20 9 -40 6 -43 -7 -6 -50 -15 -408 -84 -146 -28 -285 -55 -310 -60 -25
-5 -209 -41 -410 -80 -407 -79 -925 -181 -1070 -210 -52 -11 -192 -38 -310
-60 -118 -22 -235 -45 -260 -50 -25 -5 -63 -12 -85 -15 -22 -3 -49 -9 -60 -12
-11 -3 -17 -3 -14 1 12 13 383 113 1284 346 154 40 361 94 460 120 99 26 288
76 420 110 132 34 346 91 475 126 129 34 240 63 246 63 6 1 14 -24 18 -56z
m1691 -7 c132 -35 348 -92 480 -126 132 -34 321 -84 420 -110 99 -26 306 -80
460 -120 901 -233 1272 -333 1284 -346 3 -4 -3 -4 -14 -1 -11 4 -47 11 -80 16
-105 17 -750 142 -1195 231 -80 16 -309 61 -510 100 -201 39 -385 75 -410 80
-25 5 -164 32 -310 60 -358 69 -401 78 -408 84 -3 3 0 23 6 43 6 21 14 64 18
96 4 31 10 57 13 57 3 0 114 -29 246 -64z m-5378 -73 c-2 -16 -4 -5 -4 22 0
28 2 40 4 28 2 -13 2 -35 0 -50z m8810 0 c-2 -16 -4 -5 -4 22 0 28 2 40 4 28
2 -13 2 -35 0 -50z m-5059 -135 c37 -79 109 -175 174 -232 l50 -44 -79 -93
c-161 -193 -281 -375 -614 -930 -388 -650 -551 -884 -744 -1067 -275 -262
-488 -279 -726 -56 -307 288 -657 750 -735 972 -92 261 68 483 501 692 230
111 357 157 1220 440 418 138 731 262 865 345 30 18 56 34 57 34 0 1 14 -27
31 -61z m1604 -77 c177 -78 347 -140 683 -251 827 -271 962 -320 1190 -430
224 -109 376 -221 457 -338 91 -132 89 -295 -5 -462 -164 -292 -403 -592 -687
-863 -234 -224 -452 -207 -726 56 -194 185 -355 417 -743 1066 -332 554 -453
737 -614 929 l-78 93 69 67 c70 68 129 150 163 228 l19 43 69 -40 c38 -22 129
-66 203 -98z m-5345 82 c-3 -10 -5 -4 -5 12 0 17 2 24 5 18 2 -7 2 -21 0 -30z
m8790 0 c-3 -10 -5 -4 -5 12 0 17 2 24 5 18 2 -7 2 -21 0 -30z m-8780 -155
c-3 -8 -6 -5 -6 6 -1 11 2 17 5 13 3 -3 4 -12 1 -19z m8770 0 c-3 -8 -6 -5 -6
6 -1 11 2 17 5 13 3 -3 4 -12 1 -19z m-8760 -60 c-3 -8 -6 -5 -6 6 -1 11 2 17
5 13 3 -3 4 -12 1 -19z m8750 0 c-3 -8 -6 -5 -6 6 -1 11 2 17 5 13 3 -3 4 -12
1 -19z m-8740 -100 c-3 -8 -6 -5 -6 6 -1 11 2 17 5 13 3 -3 4 -12 1 -19z
m4039 -24 c49 -25 88 -50 86 -56 -2 -6 -106 -207 -231 -447 -126 -240 -378
-724 -561 -1076 -400 -771 -572 -1096 -577 -1091 -6 6 38 108 536 1231 252
566 502 1132 557 1257 54 125 100 227 100 228 1 0 41 -21 90 -46z m838 -182
c55 -125 306 -693 559 -1262 467 -1054 540 -1220 534 -1226 -5 -5 -188 341
-577 1091 -183 352 -435 836 -561 1076 -125 240 -229 441 -231 447 -2 9 151
98 172 101 3 0 50 -102 104 -227z m3853 206 c-3 -8 -6 -5 -6 6 -1 11 2 17 5
13 3 -3 4 -12 1 -19z m-8720 -50 c-3 -8 -6 -5 -6 6 -1 11 2 17 5 13 3 -3 4
-12 1 -19z m8710 0 c-3 -8 -6 -5 -6 6 -1 11 2 17 5 13 3 -3 4 -12 1 -19z
m-4357 -43 c87 0 158 5 177 12 l32 12 11 -57 c50 -265 137 -537 355 -1117 293
-777 376 -1076 378 -1350 1 -180 -33 -293 -116 -377 -122 -125 -313 -162 -837
-162 -524 0 -715 37 -837 162 -83 84 -118 198 -116 377 2 275 86 576 378 1350
218 579 305 852 355 1117 l11 57 32 -12 c19 -7 90 -12 177 -12z m-3870 -1385
c6 -11 8 -20 6 -20 -3 0 -10 9 -16 20 -6 11 -8 20 -6 20 3 0 10 -9 16 -20z
m80 -140 c6 -11 8 -20 6 -20 -3 0 -10 9 -16 20 -6 11 -8 20 -6 20 3 0 10 -9
16 -20z m7560 -50 c-6 -11 -13 -20 -16 -20 -2 0 0 9 6 20 6 11 13 20 16 20 2
0 0 -9 -6 -20z m-7389 -217 c13 -16 12 -17 -3 -4 -17 13 -22 21 -14 21 2 0 10
-8 17 -17z m7259 13 c0 -2 -8 -10 -17 -17 -16 -13 -17 -12 -4 4 13 16 21 21
21 13z m-7209 -83 c13 -16 12 -17 -3 -4 -10 7 -18 15 -18 17 0 8 8 3 21 -13z
m7159 13 c0 -2 -8 -10 -17 -17 -16 -13 -17 -12 -4 4 13 16 21 21 21 13z
m-7109 -83 c13 -16 12 -17 -3 -4 -17 13 -22 21 -14 21 2 0 10 -8 17 -17z
m7059 14 c0 -2 -10 -12 -22 -23 l-23 -19 19 23 c18 21 26 27 26 19z m-7025
-57 c10 -11 16 -20 13 -20 -3 0 -13 9 -23 20 -10 11 -16 20 -13 20 3 0 13 -9
23 -20z m6985 6 c0 -2 -8 -10 -17 -17 -16 -13 -17 -12 -4 4 13 16 21 21 21 13z
m-6945 -56 c10 -11 16 -20 13 -20 -3 0 -13 9 -23 20 -10 11 -16 20 -13 20 3 0
13 -9 23 -20z m6915 17 c0 -2 -10 -12 -22 -23 l-23 -19 19 23 c18 21 26 27 26
19z m-6875 -67 c10 -11 16 -20 13 -20 -3 0 -13 9 -23 20 -10 11 -16 20 -13 20
3 0 13 -9 23 -20z m6835 17 c0 -2 -10 -12 -22 -23 l-23 -19 19 23 c18 21 26
27 26 19z m-6790 -72 c13 -14 21 -25 18 -25 -2 0 -15 11 -28 25 -13 14 -21 25
-18 25 2 0 15 -11 28 -25z m6750 22 c0 -2 -12 -14 -27 -28 l-28 -24 24 28 c23
25 31 32 31 24z m-6684 -99 l29 -33 -32 29 c-31 28 -38 36 -30 36 2 0 16 -15
33 -32z m6624 29 c0 -2 -17 -19 -37 -38 l-38 -34 34 38 c33 34 41 42 41 34z
m-6445 -217 c71 -71 127 -130 125 -130 -3 0 -64 59 -135 130 -71 72 -127 130
-125 130 3 0 64 -58 135 -130z m6355 117 c0 -1 -57 -58 -127 -127 l-128 -125
125 128 c116 118 130 132 130 124z m-6160 -302 c13 -14 21 -25 18 -25 -2 0
-15 11 -28 25 -13 14 -21 25 -18 25 2 0 15 -11 28 -25z m5870 22 c0 -2 -12
-14 -27 -28 l-28 -24 24 28 c23 25 31 32 31 24z m-5795 -87 c10 -11 16 -20 13
-20 -3 0 -13 9 -23 20 -10 11 -16 20 -13 20 3 0 13 -9 23 -20z m5715 17 c0 -2
-10 -12 -22 -23 l-23 -19 19 23 c18 21 26 27 26 19z m-5649 -74 c13 -16 12
-17 -3 -4 -17 13 -22 21 -14 21 2 0 10 -8 17 -17z m5579 13 c0 -2 -8 -10 -17
-17 -16 -13 -17 -12 -4 4 13 16 21 21 21 13z m-5529 -53 c13 -16 12 -17 -3 -4
-17 13 -22 21 -14 21 2 0 10 -8 17 -17z m5479 13 c0 -2 -8 -10 -17 -17 -16
-13 -17 -12 -4 4 13 16 21 21 21 13z m-5435 -46 c10 -11 16 -20 13 -20 -3 0
-13 9 -23 20 -10 11 -16 20 -13 20 3 0 13 -9 23 -20z m5395 17 c0 -2 -10 -12
-22 -23 l-23 -19 19 23 c18 21 26 27 26 19z m-5349 -54 c13 -16 12 -17 -3 -4
-17 13 -22 21 -14 21 2 0 10 -8 17 -17z m5299 13 c0 -2 -8 -10 -17 -17 -16
-13 -17 -12 -4 4 13 16 21 21 21 13z m-5229 -63 c13 -16 12 -17 -3 -4 -17 13
-22 21 -14 21 2 0 10 -8 17 -17z m5159 13 c0 -2 -8 -10 -17 -17 -16 -13 -17
-12 -4 4 13 16 21 21 21 13z m-5089 -63 c13 -16 12 -17 -3 -4 -10 7 -18 15
-18 17 0 8 8 3 21 -13z m4919 -57 c0 -2 -12 -11 -27 -20 l-28 -17 24 20 c23
21 31 25 31 17z m-4255 -324 c-3 -3 -11 0 -18 7 -9 10 -8 11 6 5 10 -3 15 -9
12 -12z m3690 8 c-3 -5 -12 -10 -18 -10 -7 0 -6 4 3 10 19 12 23 12 15 0z
m-3600 -48 c-3 -3 -11 0 -18 7 -9 10 -8 11 6 5 10 -3 15 -9 12 -12z m3510 8
c-3 -5 -12 -10 -18 -10 -7 0 -6 4 3 10 19 12 23 12 15 0z m-2498 -306 c-3 -3
-12 -4 -19 -1 -8 3 -5 6 6 6 11 1 17 -2 13 -5z m80 -10 c-3 -3 -12 -4 -19 -1
-8 3 -5 6 6 6 11 1 17 -2 13 -5z m1330 0 c-3 -3 -12 -4 -19 -1 -8 3 -5 6 6 6
11 1 17 -2 13 -5z m-1280 -10 c-3 -3 -12 -4 -19 -1 -8 3 -5 6 6 6 11 1 17 -2
13 -5z m1230 0 c-3 -3 -12 -4 -19 -1 -8 3 -5 6 6 6 11 1 17 -2 13 -5z m-1130
-10 c-3 -3 -12 -4 -19 -1 -8 3 -5 6 6 6 11 1 17 -2 13 -5z m1030 0 c-3 -3 -12
-4 -19 -1 -8 3 -5 6 6 6 11 1 17 -2 13 -5z m-960 -10 c-3 -3 -12 -4 -19 -1 -8
3 -5 6 6 6 11 1 17 -2 13 -5z m890 0 c-3 -3 -12 -4 -19 -1 -8 3 -5 6 6 6 11 1
17 -2 13 -5z m-734 -11 c-7 -2 -21 -2 -30 0 -10 3 -4 5 12 5 17 0 24 -2 18 -5z
m590 0 c-7 -2 -21 -2 -30 0 -10 3 -4 5 12 5 17 0 24 -2 18 -5z m-425 -10 c-15
-2 -42 -2 -60 0 -18 2 -6 4 27 4 33 0 48 -2 33 -4z m290 0 c-15 -2 -42 -2 -60
0 -18 2 -6 4 27 4 33 0 48 -2 33 -4z"/>
</g>
</svg>
