<svg width="48" height="48" viewBox="0 0 48 48" fill="none" xmlns="http://www.w3.org/2000/svg">
<circle cx="24" cy="24" r="24" fill="#E1982A" fill-opacity="0.35"/>
<path d="M18.56 25.1111V29.5556H16V31.7778H19.84V34H22.4V31.7778H24.96V34H27.52V31.7211C30.039 31.4444 32 29.5933 32 27.3333C32 25.8667 31.168 24.5733 29.9008 23.7633C30.8354 22.9367 31.3593 21.8249 31.36 20.6667C31.36 18.6022 29.7229 16.8767 27.52 16.38V14H24.96V16.2222H22.4V14H19.84V16.2222H16V18.4444H18.56V25.1111ZM26.88 29.5556H21.12V25.1111H26.88C28.2918 25.1111 29.44 26.1078 29.44 27.3333C29.44 28.5589 28.2918 29.5556 26.88 29.5556ZM21.12 18.4444H26.24C27.6518 18.4444 28.8 19.4411 28.8 20.6667C28.8 21.8922 27.6518 22.8889 26.24 22.8889H21.12V18.4444Z" fill="black"/>
</svg>
